# xmcd
#
# Track frame offsets:
#	150
#	20710
#	41468
#	46081
#	70973
#	72598
#	94306
#	115174
#	134572
#	159621
#	160635
#	184520
#	186155
#	213028
#	243580
#	245693
#	266285
#	287598
#	288384
#	308370
#
# Disc length: 4417 seconds
#
# Revision: 1
# Processed by: cddbd v1.5.2PL0 Copyright (c) Steve Scherf et al.
# Submitted via: audiograbber 1.83.01
#
DISCID=1e113f14
DTITLE=Janet Jackson - All for you
DYEAR=1900
DGENRE=Black
TTITLE0=Janet Jackson - Intro
TTITLE1=Janet Jackson - You Aint right
TTITLE2=Janet Jackson - 2way for you
TTITLE3=Janet Jackson - Come on get up
TTITLE4=Janet Jackson - Come on get up
TTITLE5=Janet Jackson - When we Oooo
TTITLE6=Janet Jackson - China Love
TTITLE7=Janet Jackson - Love Scene
TTITLE8=Janet Jackson - Would you mind
TTITLE9=Janet Jackson - Lame ( Interlude )
TTITLE10=Janet Jackson - Trust a try
TTITLE11=Janet Jackson - Clouds ( Interlude )
TTITLE12=Janet Jackson - Son of a Gun
TTITLE13=Janet Jackson - Truth
TTITLE14=Janet Jackson - Theory ( Interlude )
TTITLE15=Janet Jackson - Someone to call my Lover
TTITLE16=Janet Jackson - Feels so right
TTITLE17=Janet Jackson - Doesn`t really matter
TTITLE18=Janet Jackson - Better days
TTITLE19=Janet Jackson - Outro
EXTD=
EXTT0=
EXTT1=
EXTT2=
EXTT3=
EXTT4=
EXTT5=
EXTT6=
EXTT7=
EXTT8=
EXTT9=
EXTT10=
EXTT11=
EXTT12=
EXTT13=
EXTT14=
EXTT15=
EXTT16=
EXTT17=
EXTT18=
EXTT19=
PLAYORDER=
